<svg xmlns="http://www.w3.org/2000/svg" viewBox="0 0 26 26"><path d="M26.000001 22.19526812c0 2.10138434-1.69479005 3.80473245-3.78531822 3.80473245H3.78531822C1.69472328 26.00000057 0 24.29665247 0 22.19526812V3.80473245C0 1.70341522 1.69472328 0 3.78531822 0h18.42936456c2.09059494 0 3.78531823 1.70341522 3.78531823 3.80473245v18.39053567z" fill="#FAAB62"/><path d="M25.8664636 22.10084273c0 2.07970744-1.67736343 3.76560665-3.74645884 3.76560665H3.87992948c-2.06909542 0-3.74639207-1.6858992-3.74639207-3.76560665V3.89915784c0-2.07970744 1.67736342-3.76560665 3.74639207-3.76560665h18.24007528c2.06909541 0 3.74645883 1.68596632 3.74645883 3.76560665v18.20168489z" fill="#F7931E"/><path d="M12.9855117 3.88580272c-2.57680466 0-4.66566361 2.09963945-4.66566361 4.68959297 0 2.59002063 2.08885895 4.6897943 4.6656636 4.6897943 2.57680466 0 4.6656636-2.09977367 4.6656636-4.6897943 0-2.58995352-2.08885894-4.68959297-4.6656636-4.68959297zm0 6.62829989c-1.06516117 0-1.92868083-.86801562-1.92868083-1.9386398 0-1.07062419.86351966-1.9385727 1.92868082-1.9385727 1.06516116 0 1.92868083.86794851 1.92868083 1.9385727 0 1.07062418-.86351967 1.9386398-1.92868083 1.9386398zm1.64718396 6.48260157c1.86785454-.38246644 2.98716512-1.27155496 3.04638896-1.319271.54656862-.4405847.63436947-1.24309983.19603292-1.79253882-.43826979-.54937188-1.2366232-.63762304-1.78332536-.19710545-.01155099.00939556-1.20537544.9298921-3.16964399.93123432-1.96420178-.00134222-3.1832648-.92183876-3.19481579-.93123432-.54670216-.4405176-1.34505557-.35226643-1.78332535.19710545-.43833656.54943899-.3505357 1.35195413.19603292 1.79253883.06002506.04838714 1.22553959.960629 3.14574079 1.33410256l-2.67615649 2.81115187c-.48634325.50695763-.4717209 1.31417055.0326499 1.80300816.24617622.23858014.5634611.35716555.88047892.35716555.33237461 0 .66441539-.13053119.91332912-.39005672l2.48613275-2.66196378 2.73724985 2.67921135c.49595795.49769629 1.29905194.49689095 1.79407512-.00140934.49502318-.4983674.49442226-1.30571454-.00140214-1.80327661l-2.81944213-2.80866205z" fill="#FFF"/><path d="M12.9221482 14.61895612c-.00313814 0 .00307135.00006711 0 .00013423-.00307137-.00006712.00313812-.00013423 0-.00013423z" fill="#FFF"/></svg>