<svg viewBox="0 0 50 50" xmlns="http://www.w3.org/2000/svg"><path d="M45 1H5C2.8 1 1 2.8 1 5v40c0 2.2 1.8 4 4 4h40c2.2 0 4-1.8 4-4V5c0-2.2-1.8-4-4-4z" fill="#F70"/><path d="M38 25h-1c2-4-2-8-7-8h-1c-.6 0-1 .4-1 1v14c0 .6.4 1 1 1h9c2.2 0 4-1.8 4-4s-1.8-4-4-4zm-25-.1c-.6 0-1 .4-1 1V32c0 .6.4 1 1 1s1-.4 1-1v-6.1c0-.5-.4-1-1-1zm8-6.9c-.6 0-1 .4-1 1v13c0 .6.4 1 1 1s1-.4 1-1V19c0-.6-.4-1-1-1zm4 3c-.6 0-1 .4-1 1v10c0 .6.4 1 1 1s1-.4 1-1V22c0-.6-.4-1-1-1zm-8 1c-.6 0-1 .4-1 1v9c0 .6.4 1 1 1s1-.4 1-1v-9c0-.6-.4-1-1-1zm-8 5.9c-.6 0-1 .4-1 1V32c0 .6.4 1 1 1s1-.4 1-1v-3.1c0-.5-.4-1-1-1z" fill="#FFF"/></svg>