<svg id="Layer_1" version="1.1" viewBox="0 0 2840 2840" xml:space="preserve" xmlns="http://www.w3.org/2000/svg"><style>.st0,.st3{fill-rule:evenodd;clip-rule:evenodd;fill:#010101}.st3{fill:#fff}</style><path class="st0" d="M420 170h2000c138.080078 0 250 111.920013 250 250v2000c0 138.080078-111.919922 250-250 250H420c-138.079987 0-250-111.919922-250-250V420c0-138.079987 111.920013-250 250-250z"/><path d="M1739.799927 2470c76.069946 0 137.740112-61.169922 137.740112-136.620117 0-75.449951-61.669922-136.629883-137.740112-136.629883h-20.749878c76.069824 0 137.73999 61.179932 137.73999 136.629883 0 75.450195-61.670166 136.620117-137.73999 136.620117h20.749878z" fill-rule="evenodd" clip-rule="evenodd" fill="#ee1d51"/><path d="M1717.169922 2196.75h-20.75c-76.069824 0-137.749878 61.179932-137.749878 136.629883 0 75.450195 61.680054 136.620117 137.749878 136.620117h20.75c-76.079956 0-137.749878-61.169922-137.749878-136.620117 0-75.449951 61.670044-136.629883 137.749878-136.629883z" fill-rule="evenodd" clip-rule="evenodd" fill="#66c8cf"/><ellipse class="st0" cx="1718.110107" cy="2333.379883" rx="66.990051" ry="66.430054"/><path class="st3" d="M670 2135v69.25h81.119995v263.880127h81.149963v-262.01001h66.029968L920.939941 2135H670zm664.150024 0v69.25h81.119995v263.880127h81.149902v-262.01001h66.030029L1585.090088 2135h-250.940064zm-398.100097 39.299805c0-21.699951 17.710083-39.299805 39.590027-39.299805 21.900024 0 39.629944 17.599854 39.629944 39.299805 0 21.700195-17.719971 39.300049-39.629944 39.300049-21.880066-.01001-39.590027-17.599854-39.590027-39.300049zm0 67.380127h79.219971v226.450195h-79.219971v-226.450195zM1049.23999 2135v333.130127h79.250122v-86.080078l24.530029-22.47998L1230.369995 2470h84.900024l-111.330078-160.949951 100-97.330078h-96.219971l-79.22998 78.600098V2135h-79.25zm854.700196 0v333.130127h79.259888v-86.080078l24.519897-22.47998L2085.090088 2470H2170l-111.330078-160.949951 100-97.330078h-96.219727l-79.250122 78.600098V2135h-79.259887z"/><path d="M1781.670044 981.859985c109.440063 78.189941 243.520142 124.199951 388.319946 124.199951V827.549988c-27.406494.010925-54.73877-2.848083-81.549805-8.529968V1038.25c-144.790161 0-278.850098-46.01001-388.320068-124.200012v568.349915c0 284.320068-230.599976 514.790039-515.050049 514.790039-106.130005 0-204.780029-32.070068-286.730103-87.070068C991.869995 2005.700073 1122.300049 2065 1266.600098 2065c284.469971 0 515.079834-230.469971 515.079834-514.799927V981.859985h-.009888zm100.599976-280.97998c-55.929932-61.070007-92.649902-140-100.599976-227.26004v-35.819946h-77.279907c19.450073 110.899993 85.800049 205.649993 177.879883 263.079986zM1078.25 1691.950073c-31.245361-40.950317-48.135376-91.050659-48.059937-142.559937 0-130.040039 105.47998-235.469971 235.609985-235.469971 24.248535-.016846 48.354736 3.703369 71.469971 11.029907v-284.730103c-27.008301-3.698853-54.265747-5.26709-81.52002-4.689941v221.619995c-23.125366-7.326538-47.241577-11.046875-71.5-11.029907-130.130005 0-235.599976 105.429932-235.599976 235.47998.000001 91.949953 52.720094 171.569948 129.599977 210.349977z" fill-rule="evenodd" clip-rule="evenodd" fill="#ee1d52"/><path class="st3" d="M1700.119873 914.049988C1809.589966 992.23999 1943.649902 1038.25 2088.439941 1038.25V819.02002c-80.820068-17.200012-152.369995-59.420044-206.170044-118.140015-92.080078-57.429993-158.430054-152.179993-177.880005-263.079987h-202.989868v1112.389893c-.460083 129.680054-105.760132 234.680054-235.610107 234.680054-76.52002 0-144.499878-36.450073-187.549927-92.919922-76.880066-38.780029-129.599976-118.400024-129.599976-210.349976 0-130.050049 105.469971-235.480103 235.599976-235.480103 24.929932 0 48.959961 3.880005 71.5 11.029907v-221.619873c-279.450012 5.77002-504.200012 233.98999-504.200012 514.670044 0 140.109985 55.970032 267.130005 146.799988 359.929932 81.950012 55 180.599976 87.069946 286.730103 87.069946 284.449951 0 515.050049-230.47998 515.050049-514.790039l-.000245-568.359893z"/><path d="M2088.439941 819.02002v-59.28003c-72.885742.109924-144.331665-20.290771-206.170044-58.869995 54.73816 59.897949 126.817139 101.204346 206.170044 118.150025zm-384.050048-381.220002c-1.858032-10.597443-3.282471-21.266327-4.27002-31.980011V370h-280.279907v1112.399902c-.450073 129.669922-105.73999 234.669922-235.599976 234.669922-38.130127 0-74.120117-9.040039-106-25.119873 43.050049 56.469971 111.029907 92.920044 187.549927 92.920044 129.840088 0 235.150024-105 235.610107-234.680054V437.800018h202.989869zM1255.75 1035.530029v-63.109985c-23.42041-3.201965-47.03186-4.802307-70.670044-4.789978C900.599976 967.630005 670 1198.109985 670 1482.400024c0 178.240112 90.630005 335.319946 228.349976 427.720093-90.829956-92.800049-146.799988-219.819946-146.799988-359.929932 0-280.670043 224.73999-508.890014 504.200012-514.660156z" fill-rule="evenodd" clip-rule="evenodd" fill="#69c9d0"/><path class="st3" d="M1719.040039 2470c76.069946 0 137.75-61.169922 137.75-136.620117 0-75.449951-61.680054-136.629883-137.75-136.629883h-1.880005c-76.069946 0-137.73999 61.179932-137.73999 136.629883 0 75.450195 61.669922 136.620117 137.73999 136.620117h1.880005zm-67.920044-136.620117c0-36.699951 30-66.429932 67-66.429932 36.970093 0 66.970093 29.72998 66.970093 66.429932 0 36.700195-30 66.450195-66.970093 66.450195-37-.010254-67-29.75-67-66.450195z"/></svg>