<svg viewBox="0 0 512 512" xmlns="http://www.w3.org/2000/svg" fill-rule="evenodd" clip-rule="evenodd" stroke-linejoin="round" stroke-miterlimit="2"><g fill-rule="nonzero"><path d="M512 460.8c0 28.276-22.924 51.2-51.2 51.2H51.2C22.921 512 0 489.076 0 460.8V51.2C0 22.925 22.921 0 51.2 0h409.6C489.076 0 512 22.925 512 51.2v409.6z" fill="#17b7ea"/><path d="M430.818 170.031c-1.646 36.011-26.798 85.321-75.46 147.913C305.054 383.309 262.49 416 227.682 416c-21.572 0-39.825-19.895-54.733-59.716-9.954-36.501-19.899-72.998-29.862-109.5-11.072-39.795-22.946-59.72-35.648-59.72-2.769 0-12.454 5.824-29.039 17.425l-17.404-22.417c18.262-16.043 36.271-32.081 53.991-48.15 24.354-21.034 42.649-32.102 54.835-33.22 28.787-2.769 46.511 16.913 53.163 59.038 7.189 45.453 12.168 73.724 14.959 84.783 8.311 37.717 17.446 56.555 27.413 56.555 7.735 0 19.375-12.233 34.893-36.707 15.484-24.452 23.782-43.063 24.904-55.855 2.215-21.111-6.092-31.688-24.904-31.688-8.862 0-17.997 2.035-27.392 6.063 18.189-59.55 52.932-88.47 104.205-86.823 38.02 1.118 55.953 25.771 53.755 73.963z" fill="#fff"/></g></svg>