<svg xmlns="http://www.w3.org/2000/svg" viewBox="0 0 26 26"><path d="M8.87146484-.14444442h7.97561204c7.28208056 0 9.01590927 1.7338287 9.01590927 9.01590926v7.97561204c0 7.28208056-1.7338287 9.01590927-9.01590927 9.01590927H8.87146484c-7.28208056 0-9.01590926-1.7338287-9.01590926-9.01590927V8.87146484c0-7.28208056 1.7338287-9.01590926 9.01590926-9.01590926z" fill="#5181B8"/><path d="M21.15361842 8.81540438c.1205011-.40195929 0-.69699914-.57360833-.69699914h-1.89651964c-.48229335 0-.7045124.2551618-.82501349.53633101 0 0-.96429773 2.35049379-2.33055475 3.87741893-.44212632.44212632-.64296148.58256645-.88396367.58256645-.1205011 0-.29503985-.1407291-.29503985-.54239942V8.81540438c0-.48229335-.13986218-.69699914-.54182147-.69699914H10.8275126c-.30139722 0-.48258232.2236639-.48258232.43576895 0 .45715283.68312851.56262741.75334857 1.8482614v2.7926201c0 .6123305-.11067606.72329554-.35167825.72329554-.64296148 0-2.206586-2.36118572-3.13418436-5.06277982-.18176304-.52506112-.36410403-.73716617-.84870915-.73716617H4.86718745c-.54182147 0-.65018577.2551618-.65018577.53633101 0 .50223239.64296148 2.99345526 2.99345526 6.28830775 1.56709218 2.25022068 3.77483407 3.46996918 5.78405256 3.46996918 1.20529992 0 1.35469816-.27105522 1.35469816-.73745515v-1.70059698c0-.54182147.11414373-.6498968.49587501-.6498968.28116922 0 .76346258.1407291 1.88842843 1.22552793 1.28592296 1.28592295 1.49773903 1.86270997 2.22103458 1.86270997h1.89652252c.54182147 0 .81287669-.27105522.65654313-.8056524-.1710711-.53286336-.78484646-1.305862-1.59945698-2.22247944-.44212632-.52246038-1.10502683-1.08479882-1.30586198-1.36625701-.28116923-.36150329-.20083516-.52246039 0-.84379953-.0000029.00000289 2.31032386-3.25468256 2.55132605-4.35970939z" fill="#FFF"/></svg>