<svg fill="none" xmlns="http://www.w3.org/2000/svg" viewBox="0 0 26 26"><g clip-path="url(#clip0)"><g filter="url(#filter0_d)"><rect width="26" height="26" rx="4" fill="#fff"/></g><path d="M13 4.99997c-4.4112 0-8 3.5888-8 8.00003 0 4.4114 3.5888 8 8 8 4.4114 0 8-3.5886 8-8 0-4.41123-3.5886-8.00003-8-8.00003zm.4 5.52303c.9394-.0382 1.8506-.2124 2.7068-.5038.2904.8122.4632 1.682.5032 2.5806H13.4V10.523zm0-.80043v-3.4202c1.027.76 1.8452 1.789 2.4012 2.976-.7604.2538-1.568.4074-2.4012.4442zm-.8-3.4202v3.4204c-.8332-.0372-1.6408-.1908-2.4008-.4448.5558-1.187 1.374-2.2158 2.4008-2.9756zm0 4.22083V12.6H9.39c.0398-.8984.2126-1.768.503-2.5798.8562.291 1.7676.4648 2.707.503zM8.5906 12.6H5.8118c.0818-1.4876.618-2.85563 1.471-3.96923.569.4374 1.196.8064 1.8662 1.1004-.3256.90303-.5178 1.87003-.5584 2.86883zm0 .8c.0408.9998.2332 1.9678.559 2.8714-.6694.294-1.2964.6628-1.865 1.1002-.8542-1.1138-1.391-2.4828-1.4728-3.9716h2.7788zm.7994 0h3.21v2.0776c-.9394.0382-1.8504.2126-2.7064.5044-.2908-.8126-.4638-1.6828-.5036-2.582zm3.21 2.8778v3.42c-1.0268-.7598-1.8448-1.7884-2.4008-2.9752.7602-.2542 1.5676-.408 2.4008-.4448zm.8 3.4198v-3.42c.833.0372 1.6406.1906 2.401.4446-.556 1.1868-1.374 2.2156-2.401 2.9754zm0-4.22V13.4h3.21c-.0398.8992-.2126 1.7696-.5038 2.5822-.8558-.2918-1.7668-.4662-2.7062-.5046zM17.4096 13.4h2.7788c-.0818 1.4892-.6192 2.8586-1.4736 3.9726-.5686-.4374-1.1952-.8068-1.8644-1.101.326-.9036.5184-1.8716.5592-2.8716zm0-.8c-.0408-.9992-.233-1.9666-.5588-2.87003.6698-.294 1.2972-.6626 1.866-1.0998.8534 1.1134 1.3896 2.48183 1.4714 3.96983h-2.7786zm.7838-4.57903c-.502.3818-1.0536.7064-1.6424.9668-.5568-1.2074-1.3644-2.2676-2.3702-3.0894 1.565.2594 2.96 1.025 4.0126 2.1226zm-6.374-2.1226c-1.0056.8218-1.8132 1.8818-2.3702 3.0892-.5886-.2608-1.1408-.5846-1.6428-.9664 1.0526-1.0976 2.4478-1.8634 4.013-2.1228zM7.8082 17.9806c.5018-.3818 1.053-.7066 1.6414-.9674.5568 1.2068 1.3642 2.2664 2.3694 3.0882-1.564-.2592-2.9584-1.024-4.0108-2.1208zm6.373 2.121c1.0054-.822 1.8128-1.882 2.3698-3.0892.5886.2606 1.1408.5844 1.6428.9664-1.0526 1.0976-2.4478 1.8632-4.0126 2.1228z" fill="url(#paint0_linear)"/></g><defs><linearGradient id="paint0_linear" x1="13" y1="4.99997" x2="22.101" y2="3.98613" gradientUnits="userSpaceOnUse"><stop stop-color="#92D235"/><stop offset="1" stop-color="#7CC119"/></linearGradient><clipPath id="clip0"><path fill="#fff" d="M0 0h26v26H0z"/></clipPath><filter id="filter0_d" x="-8" y="-6" width="42" height="42" filterUnits="userSpaceOnUse" color-interpolation-filters="sRGB"><feFlood flood-opacity="0" result="BackgroundImageFix"/><feColorMatrix in="SourceAlpha" values="0 0 0 0 0 0 0 0 0 0 0 0 0 0 0 0 0 0 127 0"/><feOffset dy="2"/><feGaussianBlur stdDeviation="4"/><feColorMatrix values="0 0 0 0 0.225 0 0 0 0 0.225 0 0 0 0 0.225 0 0 0 0.05 0"/><feBlend in2="BackgroundImageFix" result="effect1_dropShadow"/><feBlend in="SourceGraphic" in2="effect1_dropShadow" result="shape"/></filter></defs></svg>